<svg xmlns="http://www.w3.org/2000/svg" xmlns:xlink="http://www.w3.org/1999/xlink" version="1.1" x="0px" y="0px" viewBox="0 0 100 100" enable-background="new 0 0 100 100" xml:space="preserve"><g><path d="M50,25c-2.37,0-4.69-0.96-6.36-2.64C41.96,20.69,41,18.37,41,16c0-2.37,0.96-4.69,2.64-6.36C45.31,7.96,47.63,7,50,7   s4.689,0.96,6.359,2.64C58.04,11.31,59,13.63,59,16c0,2.37-0.96,4.69-2.641,6.36C54.689,24.04,52.37,25,50,25z"></path></g><g><path d="M50,59c-2.37,0-4.69-0.96-6.36-2.64C41.96,54.69,41,52.37,41,50c0-2.37,0.96-4.69,2.64-6.36C45.31,41.96,47.63,41,50,41   s4.689,0.96,6.359,2.64C58.04,45.31,59,47.63,59,50c0,2.37-0.96,4.69-2.641,6.36C54.689,58.04,52.37,59,50,59z"></path></g><g><path d="M50,93c-2.37,0-4.69-0.96-6.36-2.64C41.96,88.69,41,86.37,41,84c0-2.37,0.96-4.69,2.64-6.36C45.31,75.96,47.63,75,50,75   s4.689,0.96,6.359,2.64C58.04,79.31,59,81.63,59,84c0,2.37-0.96,4.69-2.641,6.36C54.689,92.04,52.37,93,50,93z"></path></g></svg>