<?xml version="1.0" encoding="UTF-8"?>
<svg width="700pt" height="700pt" version="1.1" viewBox="0 0 700 700" xmlns="http://www.w3.org/2000/svg" xmlns:xlink="http://www.w3.org/1999/xlink">
 <g transform="translate(0, 100)">
  <path d="m465.7 262.3c21.727-25.426 34.832-58.352 34.832-94.305 0-80.305-65.352-145.6-145.6-145.6h-166.65c-18.535 0-33.602 15.062-33.602 33.602 0 18.535 15.062 33.602 33.602 33.602h22.398v380.8h-22.398c-18.535 0-33.602 15.062-33.602 33.602 0 18.535 15.062 33.602 33.602 33.602h211.46c80.246 0 145.6-65.297 145.6-145.6-0.003906-56.562-32.43-105.62-79.637-129.7zm-187.82-172.7h77.055c43.176 0 78.398 35.168 78.398 78.398s-35.223 78.398-78.398 78.398h-77.055zm121.86 380.8h-121.86v-156.8h121.86c43.176 0 78.398 35.168 78.398 78.398 0.003906 43.23-35.223 78.398-78.398 78.398z"/>
 </g>
</svg>
