<?xml version="1.0" encoding="UTF-8"?>
<svg width="700pt" height="700pt" version="1.1" viewBox="0 0 700 700" xmlns="http://www.w3.org/2000/svg" xmlns:xlink="http://www.w3.org/1999/xlink">
 <g transform="translate(0, 100)">
  <path d="m210 246.4c-46.316 0-84-37.684-84-84 0-46.316 37.684-84 84-84s84 37.684 84 84c0 46.32-37.684 84-84 84zm0-100.8c-9.2617 0-16.801 7.5391-16.801 16.801 0 9.2617 7.5391 16.801 16.801 16.801s16.801-7.5391 16.801-16.801c0-9.2656-7.5391-16.801-16.801-16.801z"/>
  <path d="m210 481.6c-46.316 0-84-37.684-84-84 0-46.316 37.684-84 84-84s84 37.684 84 84c0 46.316-37.684 84-84 84zm0-100.8c-9.2617 0-16.801 7.5391-16.801 16.801 0 9.2617 7.5391 16.801 16.801 16.801s16.801-7.5391 16.801-16.801c0-9.2656-7.5391-16.801-16.801-16.801z"/>
  <path d="m540.4 196h-179.2c-18.555 0-33.602-15.047-33.602-33.602 0-18.555 15.047-33.602 33.602-33.602h179.2c18.555 0 33.602 15.047 33.602 33.602 0 18.555-15.047 33.602-33.602 33.602z"/>
  <path d="m540.4 431.2h-179.2c-18.555 0-33.602-15.047-33.602-33.602 0-18.555 15.047-33.602 33.602-33.602h179.2c18.555 0 33.602 15.047 33.602 33.602 0 18.555-15.047 33.602-33.602 33.602z"/>
 </g>
</svg>
