<svg xmlns="http://www.w3.org/2000/svg" xmlns:xlink="http://www.w3.org/1999/xlink" version="1.1" x="0px" y="0px" viewBox="0 0 100 100" enable-background="new 0 0 100 100" xml:space="preserve"><g><g><g><path d="M25,44c-8.271,0-15-6.729-15-15s6.729-15,15-15s15,6.729,15,15S33.271,44,25,44z M25,26c-1.654,0-3,1.346-3,3     s1.346,3,3,3s3-1.346,3-3S26.654,26,25,26z"></path></g><g><path d="M25,86c-8.271,0-15-6.729-15-15s6.729-15,15-15s15,6.729,15,15S33.271,86,25,86z M25,68c-1.654,0-3,1.346-3,3     s1.346,3,3,3s3-1.346,3-3S26.654,68,25,68z"></path></g></g><g><path d="M84,35H52c-3.313,0-6-2.687-6-6s2.687-6,6-6h32c3.313,0,6,2.687,6,6S87.313,35,84,35z"></path></g><g><path d="M84,77H52c-3.313,0-6-2.687-6-6s2.687-6,6-6h32c3.313,0,6,2.687,6,6S87.313,77,84,77z"></path></g></g></svg>