<?xml version="1.0" encoding="UTF-8"?>
<svg width="700pt" height="700pt" version="1.1" viewBox="0 0 700 700" xmlns="http://www.w3.org/2000/svg" xmlns:xlink="http://www.w3.org/1999/xlink">
 <g transform="translate(0, 100)">
  <path d="m585.31 56c0 18.535-15.062 33.602-33.602 33.602h-111.27l-151.37 324.52c-5.7109 12.207-17.809 19.375-30.465 19.375-4.7617 0-9.5742-1.0078-14.168-3.1367-16.801-7.8398-24.078-27.832-16.238-44.633l138.04-296.12h-113.57c-18.535 0-33.602-15.062-33.602-33.602 0-18.535 15.062-33.602 33.602-33.602h299.04c18.535 0 33.602 15.066 33.602 33.602z"/>
  <path d="m379.88 537.6h-250.36c-18.555 0-33.602-15.047-33.602-33.602s15.047-33.602 33.602-33.602h250.36c18.555 0 33.602 15.047 33.602 33.602-0.003906 18.555-15.051 33.602-33.602 33.602z"/>
  <path d="m594.21 480.26c13.16 13.105 13.16 34.383 0 47.488-6.5508 6.5508-15.121 9.8555-23.742 9.8555-8.625 0-17.191-3.3047-23.742-9.8555l-18.312-18.312-18.312 18.312c-6.5547 6.5508-15.176 9.8555-23.746 9.8555-8.625 0-17.246-3.3047-23.801-9.8555-13.105-13.105-13.105-34.383 0-47.488l18.312-18.312-18.312-18.312c-13.105-13.16-13.105-34.441 0-47.543 13.16-13.105 34.441-13.105 47.543 0l18.312 18.309 18.312-18.312c13.105-13.105 34.383-13.105 47.488 0 13.16 13.105 13.16 34.383 0 47.543l-18.312 18.312z"/>
 </g>
</svg>
