<svg xmlns="http://www.w3.org/2000/svg" xmlns:xlink="http://www.w3.org/1999/xlink" version="1.1" x="0px" y="0px" viewBox="0 0 100 100" enable-background="new 0 0 100 100" xml:space="preserve"><g><path d="M92.02,10c0,3.31-2.69,6-6,6H66.15L39.12,73.95c-1.02,2.18-3.18,3.46-5.44,3.46c-0.85,0-1.71-0.18-2.53-0.56   c-3-1.4-4.3-4.97-2.9-7.97L52.9,16H32.62c-3.31,0-6-2.69-6-6s2.69-6,6-6h53.4C89.33,4,92.02,6.69,92.02,10z"></path></g><g><path d="M55.336,96H10.629c-3.313,0-6-2.687-6-6s2.687-6,6-6h44.707c3.313,0,6,2.687,6,6S58.649,96,55.336,96z"></path></g><g><g><path d="M93.61,85.76c2.35,2.34,2.35,6.14,0,8.48c-1.17,1.17-2.7,1.76-4.24,1.76s-3.07-0.59-4.24-1.76l-3.27-3.27l-3.27,3.27    C77.42,95.41,75.88,96,74.35,96c-1.54,0-3.08-0.59-4.25-1.76c-2.34-2.34-2.34-6.14,0-8.48l3.27-3.27l-3.27-3.27    c-2.34-2.35-2.34-6.15,0-8.49c2.35-2.34,6.15-2.34,8.49,0L81.86,74l3.27-3.27c2.34-2.34,6.14-2.34,8.48,0    c2.35,2.34,2.35,6.14,0,8.49l-3.27,3.27L93.61,85.76z"></path></g></g></svg>