<?xml version="1.0" encoding="UTF-8"?>
<svg width="700pt" height="700pt" version="1.1" viewBox="0 0 700 700" xmlns="http://www.w3.org/2000/svg" xmlns:xlink="http://www.w3.org/1999/xlink">
 <g transform="translate(0, 100)">
  <path d="m260.82 448.43c-8.6016 0-17.199-3.2773-23.762-9.8398l-134.82-134.83c-13.121-13.121-13.121-34.395 0-47.516l134.82-134.83c13.125-13.121 34.406-13.121 47.516 0 13.125 13.121 13.125 34.395 0.003906 47.516l-111.07 111.07 111.07 111.07c13.121 13.121 13.121 34.395-0.003907 47.516-6.5586 6.5625-15.16 9.8438-23.758 9.8438z"/>
  <path d="m439.18 448.43c-8.5977 0-17.199-3.2812-23.754-9.8398-13.125-13.121-13.125-34.395-0.003906-47.516l111.07-111.07-111.07-111.07c-13.121-13.121-13.121-34.395 0.003907-47.516 13.121-13.121 34.402-13.121 47.516 0l134.82 134.83c13.121 13.121 13.121 34.395 0 47.516l-134.82 134.82c-6.5625 6.5625-15.164 9.8438-23.758 9.8438z"/>
 </g>
</svg>
