<?xml version="1.0" encoding="UTF-8"?>
<svg width="700pt" height="700pt" version="1.1" viewBox="0 0 700 700" xmlns="http://www.w3.org/2000/svg" xmlns:xlink="http://www.w3.org/1999/xlink">
 <g transform="translate(0, 100)">
  <path d="m574 523.7h-350.36c-18.555 0-33.602-15.047-33.602-33.602v-308.64l-87.797-87.793c-9.6094-9.6094-12.48-24.062-7.2812-36.617 5.2031-12.555 17.453-20.742 31.043-20.742h448c18.555 0 33.602 15.047 33.602 33.602v420.19c0 18.555-15.047 33.598-33.602 33.598zm-316.77-67.199h283.16v-352.99h-333.28l39.723 39.723c6.6211 6.3281 10.395 15.098 10.395 24.293l-0.003906 288.98z"/>
  <path d="m458.99 215.11h-120.34c-18.555 0-33.602-15.047-33.602-33.602 0-18.555 15.047-33.602 33.602-33.602h120.34c18.555 0 33.602 15.047 33.602 33.602 0 18.555-15.047 33.602-33.602 33.602z"/>
  <path d="m458.99 412.09h-120.34c-18.555 0-33.602-15.047-33.602-33.602 0-18.555 15.047-33.602 33.602-33.602h120.34c18.555 0 33.602 15.047 33.602 33.602 0 18.555-15.047 33.602-33.602 33.602z"/>
  <path d="m458.99 313.6h-120.34c-18.555 0-33.602-15.047-33.602-33.602s15.047-33.602 33.602-33.602h120.34c18.555 0 33.602 15.047 33.602 33.602s-15.047 33.602-33.602 33.602z"/>
 </g>
</svg>
