<svg xmlns="http://www.w3.org/2000/svg" xmlns:xlink="http://www.w3.org/1999/xlink" version="1.1" x="0px" y="0px" viewBox="0 0 100 100" enable-background="new 0 0 100 100" xml:space="preserve"><g><path d="M90,64H74.96l2.1-28H90c3.31,0,6-2.69,6-6s-2.69-6-6-6H77.96l1.02-13.55c0.25-3.31-2.23-6.19-5.53-6.43   c-3.31-0.25-6.19,2.23-6.43,5.53L65.94,24H37.96l1.02-13.55c0.25-3.31-2.23-6.19-5.53-6.43c-3.3-0.25-6.19,2.23-6.43,5.53L25.94,24   H10c-3.31,0-6,2.69-6,6s2.69,6,6,6h15.04l-2.1,28H10c-3.31,0-6,2.69-6,6s2.69,6,6,6h12.04l-1.02,13.55   c-0.25,3.31,2.23,6.19,5.53,6.43C26.7,95.99,26.86,96,27.01,96c3.11,0,5.74-2.4,5.97-5.55L34.06,76h27.98l-1.02,13.55   c-0.25,3.31,2.23,6.19,5.53,6.43C66.7,95.99,66.86,96,67.01,96c3.11,0,5.74-2.4,5.97-5.55L74.06,76H90c3.31,0,6-2.69,6-6   S93.31,64,90,64z M34.96,64l2.1-28h27.98l-2.1,28H34.96z"></path></g></svg>