<?xml version="1.0" encoding="UTF-8"?>
<svg width="700pt" height="700pt" version="1.1" viewBox="0 0 700 700" xmlns="http://www.w3.org/2000/svg" xmlns:xlink="http://www.w3.org/1999/xlink">
 <g transform="translate(0, 100)">
  <path d="m553.56 56c0 18.535-15.062 33.602-33.602 33.602h-44.07l-177.57 380.8h35.113c18.594 0 33.602 15.062 33.602 33.602 0 18.535-15.008 33.602-33.602 33.602h-153.39c-18.535 0-33.602-15.062-33.602-33.602 0-18.535 15.062-33.602 33.602-33.602h44.07l177.57-380.8h-35.113c-18.594 0-33.602-15.062-33.602-33.602 0-18.535 15.008-33.602 33.602-33.602h153.38c18.543 0.003907 33.605 15.07 33.605 33.605z"/>
 </g>
</svg>
