<svg xmlns="http://www.w3.org/2000/svg" xmlns:xlink="http://www.w3.org/1999/xlink" version="1.1" x="0px" y="0px" viewBox="0 0 100 100" enable-background="new 0 0 100 100" xml:space="preserve"><g><path d="M90,28.5H10c-3.313,0-6-2.687-6-6s2.687-6,6-6h80c3.313,0,6,2.687,6,6S93.313,28.5,90,28.5z"></path></g><g><path d="M90,83.5H10c-3.313,0-6-2.687-6-6s2.687-6,6-6h80c3.313,0,6,2.687,6,6S93.313,83.5,90,83.5z"></path></g><g><path d="M58,56H10c-3.313,0-6-2.687-6-6s2.687-6,6-6h48c3.313,0,6,2.687,6,6S61.313,56,58,56z"></path></g></svg>