<?xml version="1.0" encoding="UTF-8"?>
<svg width="700pt" height="600pt" version="1.1" viewBox="0 0 700 700" xmlns="http://www.w3.org/2000/svg" xmlns:xlink="http://www.w3.org/1999/xlink">
 <g transform="translate(0, 100)">
  <path d="m228.15 537.6c-29.438 0-57.059-11.406-77.777-32.129l-25.844-25.844c-20.719-20.719-32.129-48.34-32.129-77.777 0-29.441 11.41-57.066 32.129-77.781l97.133-97.133c13.113-13.125 34.402-13.125 47.512 0 13.125 13.121 13.125 34.395 0 47.512l-97.129 97.133c-8.0234 8.0312-12.441 18.777-12.441 30.27 0 11.492 4.418 22.238 12.441 30.262l25.844 25.844c8.0312 8.0234 18.773 12.441 30.262 12.441 11.492 0 22.238-4.418 30.262-12.441l97.133-97.125c13.113-13.125 34.402-13.125 47.512 0 13.125 13.121 13.125 34.395 0 47.512l-97.125 97.129c-20.715 20.719-48.34 32.129-77.781 32.129z"/>
  <path d="m455.55 341.94c-8.5977 0-17.199-3.2812-23.754-9.8438-13.125-13.121-13.125-34.395 0-47.512l96.168-96.168c8.0195-8.0312 12.438-18.777 12.438-30.27 0-11.492-4.418-22.238-12.441-30.262l-25.844-25.844c-8.0312-8.0234-18.773-12.441-30.262-12.441-11.492 0-22.238 4.418-30.262 12.441l-96.172 96.168c-13.113 13.125-34.402 13.125-47.512 0-13.125-13.121-13.125-34.395 0-47.512l96.164-96.172c42.887-42.895 112.67-42.895 155.55 0l25.844 25.844c42.891 42.887 42.891 112.67 0 155.55l-96.16 96.176c-6.5586 6.5625-15.16 9.8438-23.758 9.8438z"/>
  <path d="m268.29 395.31c-8.5977 0-17.199-3.2812-23.754-9.8438-13.125-13.121-13.125-34.395 0-47.512l154.41-154.41c13.113-13.125 34.402-13.125 47.512 0 13.125 13.121 13.125 34.395 0 47.512l-154.41 154.41c-6.5586 6.5625-15.16 9.8438-23.758 9.8438z"/>
 </g>
</svg>
