<svg xmlns="http://www.w3.org/2000/svg" xmlns:xlink="http://www.w3.org/1999/xlink" version="1.1" x="0px" y="0px" viewBox="0 0 100 100" enable-background="new 0 0 100 100" xml:space="preserve"><g><g><g><path d="M50,44c-8.271,0-15-6.729-15-15s6.729-15,15-15s15,6.729,15,15S58.271,44,50,44z M50,26c-1.654,0-3,1.346-3,3     s1.346,3,3,3s3-1.346,3-3S51.654,26,50,26z"></path></g><g><path d="M50,86c-8.271,0-15-6.729-15-15s6.729-15,15-15s15,6.729,15,15S58.271,86,50,86z M50,68c-1.654,0-3,1.346-3,3     s1.346,3,3,3s3-1.346,3-3S51.654,68,50,68z"></path></g></g></g></svg>