<?xml version="1.0" encoding="UTF-8"?>
<svg width="700pt" height="700pt" version="1.1" viewBox="0 0 700 700" xmlns="http://www.w3.org/2000/svg" xmlns:xlink="http://www.w3.org/1999/xlink">
 <g transform="translate(0, 100)">
  <path d="m574 47.656h-448c-18.535 0-33.602 15.062-33.602 33.602v397.49c0 18.535 15.062 33.602 33.602 33.602h448c18.535 0 33.602-15.062 33.602-33.602v-397.49c0-18.539-15.066-33.602-33.602-33.602zm-33.602 397.49h-380.8v-16.969l72.129-72.129 33.656 33.602c13.105 13.16 34.383 13.16 47.488 0.054687l132.78-132.78 94.746 94.754zm0-188.44-71.008-71.062c-13.16-13.105-34.383-13.105-47.543 0l-132.72 132.78-33.656-33.656c-13.105-13.105-34.383-13.105-47.488 0l-48.383 48.383v-218.29h380.8z"/>
  <path d="m274.1 239.15c-23.277 0-42.219-18.938-42.219-42.219 0-23.277 18.938-42.219 42.219-42.219 23.277 0 42.219 18.938 42.219 42.219s-18.938 42.219-42.219 42.219z"/>
 </g>
</svg>
