<?xml version="1.0" encoding="UTF-8"?>
<svg width="700pt" height="700pt" version="1.1" viewBox="0 0 700 700" xmlns="http://www.w3.org/2000/svg" xmlns:xlink="http://www.w3.org/1999/xlink">
 <g transform="translate(0, 100)">
  <path d="m251.16 56v160.61c0 18.535-15.008 33.602-33.602 33.602-18.535 0-33.602-15.062-33.602-33.602l0.003907-101.7c-4.7617 2.3516-9.8555 3.4727-14.84 3.4727-11.48 0-22.625-5.8789-28.895-16.465-9.5195-15.961-4.2578-36.566 11.703-46.031l48.496-28.785c0.28125-0.16797 0.61719-0.33594 0.89453-0.50391 0.16797-0.11328 0.33594-0.22266 0.50391-0.28125 0.61719-0.33594 1.2891-0.67188 1.9609-0.95312 0.39062-0.22266 0.83984-0.39062 1.2891-0.55859 0.78516-0.33594 1.625-0.61719 2.4648-0.89453 0.72656-0.22266 1.3984-0.39062 2.0703-0.50391 0.44922-0.16797 0.89453-0.28125 1.3438-0.33594 0.28125-0.054687 0.55859-0.11328 0.83984-0.16797 0.72656-0.11328 1.457-0.22266 2.1836-0.33594h0.33594c1.0625-0.10938 2.1289-0.16797 3.1914-0.16797h0.11328c0.95312 0 1.9609 0.054687 2.8555 0.16797 1.1758 0.054688 2.3516 0.22266 3.4141 0.44922 0.39062 0.054687 0.83984 0.16797 1.2305 0.28125 0.61719 0.11328 1.1758 0.22266 1.793 0.44922 1.0625 0.28125 2.1289 0.67188 3.1367 1.0625 0.67188 0.28125 1.3438 0.55859 1.9609 0.89453 0.67188 0.28125 1.2891 0.61719 1.9023 0.95312 3.1367 1.7344 6.0469 4.0312 8.5117 6.7773 0.50391 0.50391 1.0078 1.1211 1.457 1.6797 0.95312 1.1758 1.793 2.4062 2.5742 3.7539 0.33594 0.61719 0.67188 1.1758 1.0078 1.793 0.11328 0.28125 0.22266 0.50391 0.33594 0.72656 0.44922 0.95312 0.89453 1.9023 1.2305 2.9102 0.16797 0.39062 0.28125 0.78516 0.44922 1.1758 0.16797 0.55859 0.33594 1.1211 0.50391 1.6797 0 0.054687 0.054687 0.16797 0 0.22266 0.33594 1.0625 0.55859 2.1289 0.72656 3.1914 0.16797 0.78516 0.22266 1.5117 0.28125 2.2969 0.11719 1.0078 0.17188 2.0742 0.17188 3.1367z"/>
  <path d="m129.59 527.74h-0.054688c-0.78516-0.78516-1.457-1.5664-2.1289-2.3516 0.66797 0.78516 1.3984 1.5703 2.1836 2.3516z"/>
  <path d="m129.59 480.26c-0.78516 0.78516-1.5117 1.5664-2.1836 2.3516 0.67188-0.78516 1.3438-1.5664 2.1289-2.3516z"/>
  <path d="m289.07 504c0 18.535-15.008 33.602-33.602 33.602h-102.14c-3.3047 0-6.5508-0.50391-9.5742-1.3984-0.95312-0.28125-1.9023-0.61719-2.8008-0.95312-0.11328-0.054688-0.22266-0.11328-0.33594-0.11328-1.0078-0.44922-1.9609-0.89453-2.9102-1.3984-0.78516-0.39062-1.5664-0.83984-2.3516-1.3984-2.1289-1.2891-4.0312-2.8555-5.7695-4.5938-0.78516-0.78516-1.5117-1.5664-2.1836-2.3516-0.67188-0.83984-1.3438-1.7344-1.9023-2.5742-0.55859-0.83984-1.1211-1.6797-1.625-2.5742-0.67188-1.2305-1.2891-2.5742-1.793-3.8633-0.39062-0.89453-0.72656-1.8477-0.95312-2.8008-0.89844-3.0859-1.4023-6.2773-1.4023-9.582s0.50391-6.4961 1.3984-9.5742c0.22266-0.95312 0.55859-1.9023 0.95312-2.8008 0.50391-1.2891 1.1211-2.6328 1.793-3.8633 0.50391-0.89453 1.0625-1.7344 1.625-2.5742 0.55859-0.83984 1.2305-1.7344 1.9023-2.5742 0.67187-0.78516 1.3984-1.5664 2.1836-2.3516l86.855-86.91c3.5273-3.5273 5.4336-8.1758 5.4336-13.16 0-4.9297-1.9023-9.6328-5.4336-13.105-7.0547-7.0547-19.266-7.0547-26.32 0l-11.594 11.594c-13.105 13.105-34.383 13.105-47.488 0-13.16-13.16-13.16-34.441 0-47.543l11.594-11.594c16.184-16.184 37.742-25.145 60.648-25.145 22.961 0 44.465 8.9609 60.703 25.145 16.184 16.184 25.09 37.742 25.09 60.648 0 22.961-8.9023 44.465-25.09 60.703l-29.508 29.504h21c18.59 0 33.598 15.066 33.598 33.602z"/>
  <path d="m540.4 196h-179.2c-18.555 0-33.602-15.047-33.602-33.602 0-18.555 15.047-33.602 33.602-33.602h179.2c18.555 0 33.602 15.047 33.602 33.602 0 18.555-15.047 33.602-33.602 33.602z"/>
  <path d="m540.4 431.2h-179.2c-18.555 0-33.602-15.047-33.602-33.602 0-18.555 15.047-33.602 33.602-33.602h179.2c18.555 0 33.602 15.047 33.602 33.602 0 18.555-15.047 33.602-33.602 33.602z"/>
 </g>
</svg>
