<?xml version="1.0" encoding="UTF-8"?>
<svg width="700pt" height="700pt" version="1.1" viewBox="0 0 700 700" xmlns="http://www.w3.org/2000/svg" xmlns:xlink="http://www.w3.org/1999/xlink">
 <g transform="translate(0, 100)">
  <path d="m574 159.6h-448c-18.555 0-33.602-15.047-33.602-33.602s15.047-33.602 33.602-33.602h448c18.555 0 33.602 15.047 33.602 33.602s-15.047 33.602-33.602 33.602z"/>
  <path d="m574 467.6h-448c-18.555 0-33.602-15.047-33.602-33.602s15.047-33.602 33.602-33.602h448c18.555 0 33.602 15.047 33.602 33.602s-15.047 33.602-33.602 33.602z"/>
  <path d="m394.8 313.6h-268.8c-18.555 0-33.602-15.047-33.602-33.602s15.047-33.602 33.602-33.602h268.8c18.555 0 33.602 15.047 33.602 33.602-0.003906 18.555-15.051 33.602-33.602 33.602z"/>
 </g>
</svg>
