<?xml version="1.0" encoding="UTF-8"?>
<svg width="700pt" height="700pt" version="1.1" viewBox="0 0 700 700" xmlns="http://www.w3.org/2000/svg" xmlns:xlink="http://www.w3.org/1999/xlink">
 <g transform="translate(0, 100)">
  <path d="m211.79 212.07c-2.3516 0-4.6484 0.054688-7 0.22266 24.527-22.398 57.121-36.008 92.848-36.008 18.535 0 33.602-15.008 33.602-33.602 0-18.535-15.062-33.602-33.602-33.602-113.18 0.007813-205.24 92.07-205.24 205.25v17.137c0 1.1641 0.0625 2.3125 0.17187 3.4492 1.8516 64.254 54.586 116 119.22 116 65.855 0 119.45-53.594 119.45-119.45-0.003907-65.797-53.594-119.39-119.45-119.39zm0 171.64c-28.785 0-52.191-23.465-52.191-52.246 0-28.785 23.406-52.191 52.191-52.191 28.785 0 52.246 23.406 52.246 52.191 0 28.781-23.465 52.246-52.246 52.246z"/>
  <path d="m488.21 212.07c-2.3516 0-4.7031 0.054688-7.0547 0.22266 24.473-22.398 57.121-36.008 92.848-36.008 18.535 0 33.602-15.008 33.602-33.602 0-18.535-15.062-33.602-33.602-33.602-113.18 0-205.24 92.062-205.24 205.24v17.137c0 1.1641 0.0625 2.3125 0.17188 3.4492 1.8477 64.262 54.582 116 119.27 116 65.801 0 119.39-53.59 119.39-119.45 0-65.801-53.594-119.39-119.39-119.39zm0 171.64c-28.785 0-52.246-23.465-52.246-52.246 0-28.785 23.465-52.191 52.246-52.191 28.785 0 52.191 23.406 52.191 52.191 0 28.781-23.406 52.246-52.191 52.246z"/>
 </g>
</svg>
