<svg xmlns="http://www.w3.org/2000/svg" xmlns:xlink="http://www.w3.org/1999/xlink" version="1.1" x="0px" y="0px" viewBox="0 0 100 100" enable-background="new 0 0 100 100" xml:space="preserve"><g><g><path d="M93.22,60.99c-2.76-4.79-7.22-8.21-12.56-9.64c-1.79-0.48-3.59-0.71-5.36-0.71c-5.2,0-10.15,1.98-13.91,5.38l-4.46-7.72    l18.09-31.34c1.66-2.87,0.68-6.54-2.19-8.19c-2.87-1.66-6.54-0.68-8.2,2.19L50,36.3L35.37,10.96c-1.66-2.87-5.33-3.85-8.2-2.19    c-2.87,1.65-3.85,5.32-2.19,8.19L43.07,48.3l-4.46,7.73c-5.04-4.57-12.23-6.57-19.27-4.68C14,52.78,9.54,56.2,6.78,60.99    c-2.77,4.79-3.5,10.37-2.07,15.7c1.43,5.34,4.85,9.81,9.64,12.57c3.19,1.84,6.73,2.78,10.32,2.78c1.79,0,3.6-0.23,5.39-0.71    c9.23-2.47,15.34-10.86,15.34-19.99c0-0.91-0.06-1.83-0.19-2.75l4.79-8.3l4.79,8.3c-1.38,10.15,5,20.02,15.15,22.74    c1.79,0.48,3.6,0.71,5.39,0.71c3.59,0,7.13-0.94,10.32-2.78c4.79-2.76,8.21-7.23,9.64-12.56C96.72,71.36,95.99,65.78,93.22,60.99z     M26.95,79.74c-2.24,0.6-4.59,0.29-6.6-0.87c-2.01-1.16-3.45-3.04-4.05-5.28c-0.6-2.25-0.29-4.59,0.87-6.6    c1.16-2.01,3.04-3.45,5.28-4.05c0.75-0.2,1.51-0.3,2.25-0.3c1.92,0,3.76,0.64,5.25,1.77c1.48,1.12,2.61,2.72,3.14,4.64    c0.01,0.01,0.01,0.03,0.01,0.06C34.33,73.73,31.57,78.5,26.95,79.74z M83.7,73.59c-0.6,2.24-2.04,4.12-4.05,5.28    c-2.01,1.16-4.36,1.47-6.6,0.87c-4.61-1.23-7.36-5.97-6.17-10.58c0.01-0.02,0.02-0.03,0.02-0.05c0-0.03,0-0.05,0.01-0.06    c1.26-4.61,6.02-7.35,10.64-6.11c2.24,0.6,4.12,2.04,5.28,4.05C83.99,69,84.3,71.34,83.7,73.59z"></path></g></g></svg>