<?xml version="1.0" encoding="UTF-8"?>
<svg width="700pt" height="700pt" version="1.1" viewBox="0 0 700 700" xmlns="http://www.w3.org/2000/svg" xmlns:xlink="http://www.w3.org/1999/xlink">
 <g transform="translate(0, 100)">
  <path d="m607.6 255.98c0 18.594-15.062 33.602-33.602 33.602l-102.2-0.003906c-2.1836 0-4.3125-0.22266-6.3828-0.61719-0.89453-0.16797-1.793-0.39062-2.6875-0.67188-1.6797-0.44922-3.3047-1.0078-4.8164-1.7344-0.72656-0.28125-1.3984-0.67188-2.0703-1.0078-0.95312-0.50391-1.9023-1.0625-2.8008-1.6797-3.8633-2.6328-7.1133-5.9922-9.5742-9.9102-0.50391-0.78516-0.95312-1.5664-1.3984-2.3516-0.95312-1.8477-1.7344-3.6953-2.3516-5.6562-0.054688-0.11328-0.054688-0.16797-0.054688-0.28125-0.39062-1.1758-0.67187-2.4062-0.89453-3.6406-0.11328-0.67188-0.22266-1.2891-0.28125-1.9609-0.72656-5.9922 0.16797-12.098 2.6328-17.695v-0.054688c0.28125-0.61719 0.61719-1.1758 0.89453-1.793 0.22266-0.50391 0.50391-1.0078 0.78516-1.457 0.33594-0.61719 0.72656-1.2305 1.1758-1.8477 1.1758-1.793 2.5742-3.4727 4.0898-4.9844l86.91-86.91c3.4727-3.4727 5.4336-8.1758 5.4336-13.105 0-4.9844-1.9609-9.6328-5.4336-13.16-7.2812-7.2812-19.039-7.2227-26.32 0l-11.594 11.594c-13.105 13.105-34.383 13.105-47.543 0-13.105-13.105-13.105-34.383 0-47.543l11.648-11.594c33.434-33.434 87.863-33.434 121.3 0 16.238 16.238 25.145 37.742 25.145 60.703 0 22.902-8.9023 44.465-25.145 60.648l-29.512 29.512h21.047c18.535 0 33.602 15.066 33.602 33.602z"/>
  <path d="m438.48 260.06c-0.22266-1.3438-0.28125-2.6875-0.28125-4.0898 0-1.6641 0.16406-3.293 0.39844-4.8984-0.4375 2.9766-0.48047 6-0.11719 8.9883z"/>
  <path d="m438.6 251.06c0 0.003906 0 0.011718-0.003906 0.015625z"/>
  <path d="m441.11 242.37c-1.2305 2.793-2.0703 5.7188-2.5078 8.6914 0.44531-3.0469 1.2617-5.9805 2.5078-8.6914z"/>
  <path d="m373.74 456.23c13.16 13.105 13.16 34.383 0 47.543-6.5508 6.5508-15.121 9.8008-23.742 9.8008-8.625 0-17.191-3.2461-23.742-9.8008l-88.258-88.254-88.258 88.258c-6.5508 6.5508-15.121 9.8008-23.742 9.8008-8.625 0-17.191-3.2461-23.742-9.8008-13.16-13.16-13.16-34.441 0-47.543l88.258-88.199-88.258-88.258c-13.16-13.16-13.16-34.441 0-47.543 13.105-13.105 34.383-13.105 47.488 0l88.254 88.254 88.258-88.258c13.105-13.105 34.383-13.105 47.488 0 13.16 13.105 13.16 34.383 0 47.543l-88.203 88.258z"/>
 </g>
</svg>
