<?xml version="1.0" encoding="UTF-8"?>
<svg width="700pt" height="700pt" version="1.1" viewBox="0 0 700 700" xmlns="http://www.w3.org/2000/svg" xmlns:xlink="http://www.w3.org/1999/xlink">
 <g transform="translate(0, 100)">
  <path d="m574 471.18h-212.02c-18.555 0-33.602-15.047-33.602-33.602 0-18.555 15.047-33.602 33.602-33.602l212.02 0.003906c18.555 0 33.602 15.047 33.602 33.602 0 18.551-15.047 33.598-33.602 33.598z"/>
  <path d="m574 156.02h-212.02c-18.555 0-33.602-15.047-33.602-33.602 0-18.555 15.047-33.602 33.602-33.602l212.02 0.003906c18.555 0 33.602 15.047 33.602 33.602 0 18.551-15.047 33.598-33.602 33.598z"/>
  <path d="m574 313.6h-212.02c-18.555 0-33.602-15.047-33.602-33.602s15.047-33.602 33.602-33.602h212.02c18.555 0 33.602 15.047 33.602 33.602s-15.047 33.602-33.602 33.602z"/>
  <path d="m211.64 399.24c-8.5977 0-17.199-3.2812-23.754-9.8398l-85.641-85.641c-13.125-13.121-13.125-34.395 0-47.516l85.641-85.641c13.113-13.121 34.402-13.121 47.512 0 13.125 13.121 13.125 34.395 0 47.516l-61.883 61.879 61.879 61.879c13.125 13.121 13.125 34.395 0 47.516-6.5547 6.5664-15.156 9.8477-23.754 9.8477z"/>
 </g>
</svg>
