<svg xmlns="http://www.w3.org/2000/svg" viewBox="0 0 14 14">
    <g>
        <path d="M8.5,3.5v-1a1,1,0,0,0-1-1h-1" fill="none" stroke="currentColor" stroke-linecap="round" stroke-linejoin="round"></path>
        <path d="M4,10.5H1.5a1,1,0,0,1-1-1v-7a1,1,0,0,1,1-1h1" fill="none" stroke="currentColor" stroke-linecap="round" stroke-linejoin="round"></path>
        <rect x="6.5" y="5.5" width="7" height="8" rx="1" fill="none" stroke="currentColor" stroke-linecap="round" stroke-linejoin="round"></rect>
        <path d="M6.75.5H2.25l.41,1.62a.49.49,0,0,0,.48.38H5.86a.49.49,0,0,0,.48-.38Z" fill="none" stroke="currentColor" stroke-linecap="round" stroke-linejoin="round"></path>
        <line x1="8.5" y1="8.5" x2="11.5" y2="8.5" fill="none" stroke="currentColor" stroke-linecap="round" stroke-linejoin="round"></line>
        <line x1="8.5" y1="10.5" x2="11.5" y2="10.5" fill="none" stroke="currentColor" stroke-linecap="round" stroke-linejoin="round"></line>
    </g>
</svg>