<!-- https://thenounproject.com/browse/collection-icon/minio-text-editor-bold-13520/?p=1 -->
<svg xmlns="http://www.w3.org/2000/svg" xmlns:xlink="http://www.w3.org/1999/xlink" version="1.1" x="0px" y="0px" viewBox="0 0 100 100" enable-background="new 0 0 100 100" xml:space="preserve"><g><g><path d="M34.076,80.077c-1.536,0-3.071-0.585-4.243-1.757L5.757,54.243c-2.343-2.343-2.343-6.142,0-8.485l24.076-24.077    c2.344-2.343,6.144-2.343,8.485,0c2.344,2.343,2.344,6.142,0.001,8.485L18.485,50l19.834,19.834    c2.343,2.343,2.343,6.142-0.001,8.485C37.147,79.491,35.611,80.077,34.076,80.077z"></path></g><g><path d="M65.924,80.077c-1.535,0-3.071-0.586-4.242-1.757c-2.344-2.343-2.344-6.142-0.001-8.485L81.515,50L61.681,30.166    c-2.343-2.343-2.343-6.142,0.001-8.485c2.343-2.343,6.143-2.343,8.485,0l24.076,24.077c2.343,2.343,2.343,6.142,0,8.485    L70.167,78.319C68.995,79.491,67.459,80.077,65.924,80.077z"></path></g></g></svg>