<!-- https://thenounproject.com/browse/collection-icon/minio-text-editor-bold-13520/?p=1 --><!-- https://thenounproject.com/browse/collection-icon/minio-text-editor-bold-13520/?p=1 -->
<svg xmlns="http://www.w3.org/2000/svg" xmlns:xlink="http://www.w3.org/1999/xlink" version="1.1" x="0px" y="0px" viewBox="0 0 100 100" enable-background="new 0 0 100 100" xml:space="preserve"><g><g><path d="M90,93.517H27.435c-3.313,0-6-2.687-6-6V32.403L5.757,16.726c-1.716-1.716-2.229-4.297-1.3-6.539    C5.386,7.945,7.573,6.483,10,6.483h80c3.313,0,6,2.687,6,6v75.034C96,90.831,93.313,93.517,90,93.517z M33.435,81.517H84V18.483    H24.485l7.093,7.093c1.182,1.13,1.856,2.696,1.856,4.338V81.517z"></path></g><g><g><path d="M69.463,38.412h-21.49c-3.313,0-6-2.687-6-6s2.687-6,6-6h21.49c3.313,0,6,2.687,6,6S72.776,38.412,69.463,38.412z"></path></g><g><path d="M69.463,73.588h-21.49c-3.313,0-6-2.687-6-6s2.687-6,6-6h21.49c3.313,0,6,2.687,6,6S72.776,73.588,69.463,73.588z"></path></g><g><path d="M69.463,56h-21.49c-3.313,0-6-2.687-6-6s2.687-6,6-6h21.49c3.313,0,6,2.687,6,6S72.776,56,69.463,56z"></path></g></g></g></svg>