<!-- https://thenounproject.com/browse/collection-icon/minio-text-editor-bold-13520/?p=1 -->
<svg xmlns="http://www.w3.org/2000/svg" xmlns:xlink="http://www.w3.org/1999/xlink" version="1.1" x="0px" y="0px" viewBox="0 0 100 100" enable-background="new 0 0 100 100" xml:space="preserve"><g><g><path d="M90,8.51H10c-3.31,0-6,2.69-6,6v70.98c0,3.31,2.69,6,6,6h80c3.31,0,6-2.69,6-6V14.51C96,11.2,93.31,8.51,90,8.51z     M84,79.49H16v-3.03l12.88-12.88l6.01,6c2.34,2.35,6.14,2.35,8.48,0.01l23.71-23.71L84,62.8V79.49z M84,45.84L71.32,33.15    c-2.35-2.34-6.14-2.34-8.49,0l-23.7,23.71l-6.01-6.01c-2.34-2.34-6.14-2.34-8.48,0L16,59.49V20.51h68V45.84z"></path></g><g><path d="M36.447,42.706c-4.157,0-7.539-3.382-7.539-7.539s3.382-7.539,7.539-7.539c4.157,0,7.539,3.382,7.539,7.539    S40.604,42.706,36.447,42.706z"></path></g></g></svg>