<!-- https://thenounproject.com/browse/collection-icon/minio-text-editor-bold-13520/?p=1 -->
<svg xmlns="http://www.w3.org/2000/svg" xmlns:xlink="http://www.w3.org/1999/xlink" version="1.1" x="0px" y="0px" viewBox="0 0 100 100" enable-background="new 0 0 100 100" xml:space="preserve"><g><path d="M84.96,3.77H35.04c-14.34,0-26,11.66-26,26c0,14.34,11.66,26,26,26h6.42v34.46c0,3.31,2.69,6,6,6c3.32,0,6-2.69,6-6V15.77   h11.67v74.46c0,3.31,2.69,6,6,6s6-2.69,6-6V15.77h7.83c3.32,0,6-2.69,6-6S88.28,3.77,84.96,3.77z M41.46,43.77h-6.42   c-7.72,0-14-6.28-14-14c0-7.72,6.28-14,14-14h6.42V43.77z"></path></g></svg>