<!-- https://thenounproject.com/browse/collection-icon/minio-text-editor-bold-13520/?p=1 -->
<svg xmlns="http://www.w3.org/2000/svg" xmlns:xlink="http://www.w3.org/1999/xlink" version="1.1" x="0px" y="0px" viewBox="0 0 100 100" enable-background="new 0 0 100 100" xml:space="preserve"><g><g><path d="M96,45.71c0,3.32-2.69,6-6,6H71.75c-0.39,0-0.77-0.04-1.14-0.11c-0.16-0.03-0.32-0.07-0.48-0.12    c-0.3-0.08-0.59-0.18-0.86-0.31c-0.13-0.05-0.25-0.12-0.37-0.18c-0.17-0.09-0.34-0.19-0.5-0.3c-0.69-0.47-1.27-1.07-1.71-1.77    c-0.09-0.14-0.17-0.28-0.25-0.42c-0.17-0.33-0.31-0.66-0.42-1.01c-0.01-0.02-0.01-0.03-0.01-0.05c-0.07-0.21-0.12-0.43-0.16-0.65    c-0.02-0.12-0.04-0.23-0.05-0.35c-0.13-1.07,0.03-2.16,0.47-3.16c0-0.01,0-0.01,0-0.01c0.05-0.11,0.11-0.21,0.16-0.32    c0.04-0.09,0.09-0.18,0.14-0.26c0.06-0.11,0.13-0.22,0.21-0.33c0.21-0.32,0.46-0.62,0.73-0.89l15.52-15.52    c0.62-0.62,0.97-1.46,0.97-2.34c0-0.89-0.35-1.72-0.97-2.35c-1.3-1.3-3.4-1.29-4.7,0l-2.07,2.07c-2.34,2.34-6.14,2.34-8.49,0    c-2.34-2.34-2.34-6.14,0-8.49l2.08-2.07c5.97-5.97,15.69-5.97,21.66,0c2.9,2.9,4.49,6.74,4.49,10.84c0,4.09-1.59,7.94-4.49,10.83    l-5.27,5.27H90C93.31,39.71,96,42.4,96,45.71z"></path><path d="M65.8,46.44c-0.04-0.24-0.05-0.48-0.05-0.73c0-0.297,0.029-0.588,0.071-0.875C65.743,45.366,65.735,45.906,65.8,46.44z"></path><path d="M65.822,44.832c0,0.001,0,0.002-0.001,0.003L65.822,44.832z"></path><path d="M66.27,43.28c-0.22,0.499-0.37,1.021-0.448,1.552C65.902,44.288,66.048,43.764,66.27,43.28z"></path></g></g><g><g><path d="M54.24,81.47c2.35,2.34,2.35,6.14,0,8.49c-1.17,1.17-2.7,1.75-4.24,1.75s-3.07-0.58-4.24-1.75L30,74.2L14.24,89.96    c-1.17,1.17-2.7,1.75-4.24,1.75s-3.07-0.58-4.24-1.75c-2.35-2.35-2.35-6.15,0-8.49l15.76-15.75L5.76,49.96    c-2.35-2.35-2.35-6.15,0-8.49c2.34-2.34,6.14-2.34,8.48,0L30,57.23l15.76-15.76c2.34-2.34,6.14-2.34,8.48,0    c2.35,2.34,2.35,6.14,0,8.49L38.49,65.72L54.24,81.47z"></path></g></g></svg>