<!-- https://thenounproject.com/browse/collection-icon/minio-text-editor-bold-13520/?p=1 -->
<svg xmlns="http://www.w3.org/2000/svg" xmlns:xlink="http://www.w3.org/1999/xlink" version="1.1" x="0px" y="0px" viewBox="0 0 100 100" enable-background="new 0 0 100 100" xml:space="preserve"><g><g><path d="M82.55,90.39c-1.17,1.17-2.71,1.76-4.24,1.76c-1.54,0-3.08-0.59-4.25-1.76c-2.34-2.35-2.34-6.14,0-8.49    c13.23-13.23,13.23-34.75,0-47.98c-13.22-13.22-34.75-13.22-47.97,0l-2.17,2.17h14.32c3.31,0,6,2.69,6,6c0,3.32-2.69,6-6,6H10    c-3.31,0-6-2.68-6-6V13.85c0-3.31,2.69-6,6-6s6,2.69,6,6v13.19l1.6-1.6c17.91-17.91,47.04-17.91,64.95,0    C100.46,43.35,100.46,72.48,82.55,90.39z"></path></g></g></svg>