<!-- https://thenounproject.com/browse/collection-icon/minio-text-editor-bold-13520/?p=1 -->
<svg xmlns="http://www.w3.org/2000/svg" xmlns:xlink="http://www.w3.org/1999/xlink" version="1.1" x="0px" y="0px" viewBox="0 0 100 100" enable-background="new 0 0 100 100" xml:space="preserve"><g><g><path d="M28.241,96c-5.257,0-10.189-2.037-13.889-5.737l-4.615-4.615C6.037,81.948,4,77.016,4,71.759S6.037,61.569,9.737,57.87    l17.345-17.345c2.342-2.344,6.143-2.344,8.484,0c2.344,2.343,2.344,6.142,0,8.484L18.222,66.354    C16.789,67.788,16,69.707,16,71.759s0.789,3.971,2.222,5.404l4.615,4.615C24.271,83.211,26.189,84,28.241,84    s3.971-0.789,5.404-2.222L50.99,64.434c2.342-2.344,6.143-2.344,8.484,0c2.344,2.343,2.344,6.142,0,8.484L42.13,90.263    C38.431,93.963,33.498,96,28.241,96z"></path></g><g><path d="M68.848,61.061c-1.535,0-3.071-0.586-4.242-1.758c-2.344-2.343-2.344-6.142,0-8.484l17.173-17.173    C83.211,32.212,84,30.293,84,28.241s-0.789-3.971-2.222-5.404l-4.615-4.615C75.729,16.789,73.811,16,71.759,16    s-3.971,0.789-5.404,2.222L49.182,35.395c-2.342,2.344-6.143,2.344-8.484,0c-2.344-2.343-2.344-6.142,0-8.484L57.87,9.737    c7.658-7.66,20.119-7.66,27.777,0l4.615,4.615c7.659,7.658,7.659,20.119,0,27.777L73.09,59.303    C71.919,60.475,70.383,61.061,68.848,61.061z"></path></g></g><g><path d="M26.025,32.025c-1.535,0-3.071-0.586-4.242-1.758l-7.778-7.778c-2.344-2.343-2.344-6.142,0-8.484   c2.342-2.344,6.143-2.344,8.484,0l7.778,7.778c2.344,2.343,2.344,6.142,0,8.484C29.097,31.439,27.561,32.025,26.025,32.025z"></path></g><g><path d="M14.004,44.046c-1.535,0-3.071-0.586-4.242-1.758L6.934,39.46c-2.344-2.343-2.344-6.142,0-8.484   c2.342-2.344,6.143-2.344,8.484,0l2.828,2.828c2.344,2.343,2.344,6.142,0,8.484C17.075,43.46,15.539,44.046,14.004,44.046z"></path></g><g><path d="M38.046,20.004c-1.535,0-3.071-0.586-4.242-1.758l-2.828-2.828c-2.344-2.343-2.344-6.142,0-8.484   c2.342-2.344,6.143-2.344,8.484,0l2.828,2.828c2.344,2.343,2.344,6.142,0,8.484C41.117,19.418,39.581,20.004,38.046,20.004z"></path></g><g><path d="M81.753,87.753c-1.535,0-3.071-0.586-4.242-1.758l-7.778-7.778c-2.344-2.343-2.344-6.142,0-8.484   c2.342-2.344,6.143-2.344,8.484,0l7.778,7.778c2.344,2.343,2.344,6.142,0,8.484C84.824,87.167,83.288,87.753,81.753,87.753z"></path></g><g><path d="M88.824,70.782c-1.535,0-3.071-0.586-4.242-1.758l-2.828-2.828c-2.344-2.343-2.344-6.142,0-8.484   c2.342-2.344,6.143-2.344,8.484,0l2.828,2.828c2.344,2.343,2.344,6.142,0,8.484C91.896,70.196,90.359,70.782,88.824,70.782z"></path></g><g><path d="M64.782,94.824c-1.535,0-3.071-0.586-4.242-1.758l-2.828-2.828c-2.344-2.343-2.344-6.142,0-8.484   c2.342-2.344,6.143-2.344,8.484,0l2.828,2.828c2.344,2.343,2.344,6.142,0,8.484C67.854,94.238,66.317,94.824,64.782,94.824z"></path></g></svg>