<svg xmlns="http://www.w3.org/2000/svg" xmlns:xlink="http://www.w3.org/1999/xlink" version="1.1" x="0px" y="0px" viewBox="0 0 100 100" enable-background="new 0 0 100 100" xml:space="preserve"><g><path d="M90,84.14H52.139c-3.313,0-6-2.687-6-6s2.687-6,6-6H90c3.313,0,6,2.687,6,6S93.313,84.14,90,84.14z"></path></g><g><path d="M90,27.86H52.139c-3.313,0-6-2.687-6-6s2.687-6,6-6H90c3.313,0,6,2.687,6,6S93.313,27.86,90,27.86z"></path></g><g><path d="M90,56H52.139c-3.313,0-6-2.687-6-6s2.687-6,6-6H90c3.313,0,6,2.687,6,6S93.313,56,90,56z"></path></g><g><path d="M10,71.293c-1.535,0-3.071-0.586-4.242-1.757c-2.344-2.343-2.344-6.142,0-8.485L16.808,50L5.758,38.95   c-2.344-2.343-2.344-6.142,0-8.485c2.342-2.343,6.143-2.343,8.484,0l15.293,15.293c2.344,2.343,2.344,6.142,0,8.485L14.242,69.536   C13.071,70.707,11.535,71.293,10,71.293z"></path></g></svg>