<svg xmlns="http://www.w3.org/2000/svg" xmlns:xlink="http://www.w3.org/1999/xlink" version="1.1" x="0px" y="0px" viewBox="0 0 100 100" enable-background="new 0 0 100 100" xml:space="preserve"><g><g><g><path d="M32.35,10v28.68c0,3.31-2.68,6-6,6c-3.31,0-6-2.69-6-6V20.52c-0.85,0.42-1.76,0.62-2.65,0.62     c-2.05,0-4.04-1.05-5.16-2.94c-1.7-2.85-0.76-6.53,2.09-8.22l8.66-5.14c0.05-0.03,0.11-0.06,0.16-0.09     c0.03-0.02,0.06-0.04,0.09-0.05c0.11-0.06,0.23-0.12,0.35-0.17c0.07-0.04,0.15-0.07,0.23-0.1c0.14-0.06,0.29-0.11,0.44-0.16     c0.13-0.04,0.25-0.07,0.37-0.09c0.08-0.03,0.16-0.05,0.24-0.06c0.05-0.01,0.1-0.02,0.15-0.03c0.13-0.02,0.26-0.04,0.39-0.06h0.06     C25.96,4.01,26.15,4,26.34,4c0.01,0,0.02,0,0.02,0c0.17,0,0.35,0.01,0.51,0.03c0.21,0.01,0.42,0.04,0.61,0.08     c0.07,0.01,0.15,0.03,0.22,0.05c0.11,0.02,0.21,0.04,0.32,0.08c0.19,0.05,0.38,0.12,0.56,0.19c0.12,0.05,0.24,0.1,0.35,0.16     c0.12,0.05,0.23,0.11,0.34,0.17c0.56,0.31,1.08,0.72,1.52,1.21c0.09,0.09,0.18,0.2,0.26,0.3c0.17,0.21,0.32,0.43,0.46,0.67     c0.06,0.11,0.12,0.21,0.18,0.32c0.02,0.05,0.04,0.09,0.06,0.13c0.08,0.17,0.16,0.34,0.22,0.52c0.03,0.07,0.05,0.14,0.08,0.21     c0.03,0.1,0.06,0.2,0.09,0.3c0,0.01,0.01,0.03,0,0.04c0.06,0.19,0.1,0.38,0.13,0.57c0.03,0.14,0.04,0.27,0.05,0.41     C32.34,9.62,32.35,9.81,32.35,10z"></path></g></g><g><g><path d="M10.64,94.24h-0.01c-0.14-0.14-0.26-0.28-0.38-0.42C10.37,93.96,10.5,94.1,10.64,94.24z"></path><path d="M10.64,85.76c-0.14,0.14-0.27,0.28-0.39,0.42c0.12-0.14,0.24-0.28,0.38-0.42H10.64z"></path></g><g><path d="M39.12,90c0,3.31-2.68,6-6,6H14.88c-0.59,0-1.17-0.09-1.71-0.25c-0.17-0.05-0.34-0.11-0.5-0.17     c-0.02-0.01-0.04-0.02-0.06-0.02c-0.18-0.08-0.35-0.16-0.52-0.25c-0.14-0.07-0.28-0.15-0.42-0.25c-0.38-0.23-0.72-0.51-1.03-0.82     c-0.14-0.14-0.27-0.28-0.39-0.42c-0.12-0.15-0.24-0.31-0.34-0.46c-0.1-0.15-0.2-0.3-0.29-0.46c-0.12-0.22-0.23-0.46-0.32-0.69     c-0.07-0.16-0.13-0.33-0.17-0.5C8.97,91.16,8.88,90.59,8.88,90c0-0.59,0.09-1.16,0.25-1.71c0.04-0.17,0.1-0.34,0.17-0.5     c0.09-0.23,0.2-0.47,0.32-0.69c0.09-0.16,0.19-0.31,0.29-0.46c0.1-0.15,0.22-0.31,0.34-0.46c0.12-0.14,0.25-0.28,0.39-0.42     l15.51-15.52c0.63-0.63,0.97-1.46,0.97-2.35c0-0.88-0.34-1.72-0.97-2.34c-1.26-1.26-3.44-1.26-4.7,0l-2.07,2.07     c-2.34,2.34-6.14,2.34-8.48,0c-2.35-2.35-2.35-6.15,0-8.49l2.07-2.07c2.89-2.89,6.74-4.49,10.83-4.49c4.1,0,7.94,1.6,10.84,4.49     c2.89,2.89,4.48,6.74,4.48,10.83c0,4.1-1.59,7.94-4.48,10.84L29.37,84h3.75C36.44,84,39.12,86.69,39.12,90z"></path></g></g><g><path d="M84,35H52c-3.313,0-6-2.687-6-6s2.687-6,6-6h32c3.313,0,6,2.687,6,6S87.313,35,84,35z"></path></g><g><path d="M84,77H52c-3.313,0-6-2.687-6-6s2.687-6,6-6h32c3.313,0,6,2.687,6,6S87.313,77,84,77z"></path></g></g></svg>