<svg xmlns="http://www.w3.org/2000/svg" xmlns:xlink="http://www.w3.org/1999/xlink" version="1.1" x="0px" y="0px" viewBox="0 0 100 100" enable-background="new 0 0 100 100" xml:space="preserve"><g><g><path d="M25.32,37.87c-0.42,0-0.83,0.01-1.25,0.04c4.38-4,10.2-6.43,16.58-6.43c3.31,0,6-2.68,6-6c0-3.31-2.69-6-6-6    C20.44,19.48,4,35.92,4,56.13v3.06c0,0.208,0.011,0.413,0.031,0.616C4.361,71.28,13.778,80.52,25.32,80.52    c11.76,0,21.33-9.57,21.33-21.33C46.65,47.44,37.08,37.87,25.32,37.87z M25.32,68.52c-5.14,0-9.32-4.19-9.32-9.33    c0-5.14,4.18-9.32,9.32-9.32s9.33,4.18,9.33,9.32C34.65,64.33,30.46,68.52,25.32,68.52z"></path></g></g><g><g><path d="M74.68,37.87c-0.42,0-0.84,0.01-1.26,0.04c4.37-4,10.2-6.43,16.58-6.43c3.31,0,6-2.68,6-6c0-3.31-2.69-6-6-6    c-20.21,0-36.65,16.44-36.65,36.65v3.06c0,0.208,0.011,0.413,0.031,0.616C53.711,71.28,63.128,80.52,74.68,80.52    C86.43,80.52,96,70.95,96,59.19C96,47.44,86.43,37.87,74.68,37.87z M74.68,68.52c-5.14,0-9.33-4.19-9.33-9.33    c0-5.14,4.19-9.32,9.33-9.32S84,54.05,84,59.19C84,64.33,79.82,68.52,74.68,68.52z"></path></g></g></svg>