<svg xmlns="http://www.w3.org/2000/svg" xmlns:xlink="http://www.w3.org/1999/xlink" version="1.1" x="0px" y="0px" viewBox="0 0 100 100" enable-background="new 0 0 100 100" xml:space="preserve"><g><g><path d="M96,13.85v28.24c0,3.32-2.69,6-6,6H61.76c-3.31,0-6-2.68-6-6c0-3.31,2.69-6,6-6h14.32l-2.17-2.17    c-13.22-13.22-34.75-13.22-47.97,0c-13.23,13.23-13.23,34.75,0,47.98c2.34,2.35,2.34,6.14,0,8.49c-1.17,1.17-2.71,1.76-4.25,1.76    c-1.53,0-3.07-0.59-4.24-1.76c-17.91-17.91-17.91-47.04,0-64.95c17.91-17.91,47.04-17.91,64.95,0l1.6,1.6V13.85c0-3.31,2.69-6,6-6    S96,10.54,96,13.85z"></path></g></g></svg>